<svg width="300" height="100" xmlns="http://www.w3.org/2000/svg" xml:space="preserve" version="1.1">

 <g>
  <title>Layer 1</title>
  <path id="svg_8" d="m96,21.5" opacity="NaN" stroke="#000" fill="#fff"/>
  <path id="svg_11" d="m15.17978,1.00405" opacity="NaN" fill="#F2F2F2"/>
  <line id="svg_12" y2="100.01192" x2="39.8484" y1="0.00397" x1="-0.32146" fill="none"/>
  <text font-weight="bold" xml:space="preserve" text-anchor="start" font-family="'Besley'" font-size="30" stroke-width="0" id="svg_14" y="59.83326" x="81.97319" fill="#ffffff">Common Lisp</text>
  <g id="svg_15">
   <path id="svg_2" fill="#F2F2F2" d="m78.62168,50.0719c0,13.91911 -7.82231,26.1127 -19.21067,32.32453c-5.17653,2.87585 -11.27333,4.48632 -17.60019,4.48632c-20.36101,0 -36.81086,-16.44985 -36.81086,-36.81086c0,-13.91911 7.82231,-26.1127 19.21067,-32.32453c5.17653,-2.87585 11.27333,-4.48632 17.60019,-4.48632c20.36101,0 36.81086,16.44985 36.81086,36.81086z" class="st0"/>
   <path id="svg_4" fill="#2D3A3E" d="m78.95818,49.9281c0,13.91911 -7.82231,26.1127 -19.21067,32.32453c-6.0968,1.38041 -12.76877,-0.46014 -17.60019,-5.17653c-7.47721,-7.47721 -7.47721,-19.6708 0,-27.14801c7.47721,-7.47721 7.47721,-19.6708 0,-27.14801c-4.83143,-4.83143 -11.50339,-6.55693 -17.60019,-5.17653c5.17653,-2.87585 11.27333,-4.48632 17.60019,-4.48632c20.36101,0 36.81086,16.44985 36.81086,36.81086z" class="st1"/>
   <path id="svg_5" fill="#2D3A3E" d="m33.78721,69.42635l0,0c-0.6902,-0.92027 -1.26537,-1.95558 -1.95558,-2.99088c-0.80524,-1.38041 -1.49544,-2.87585 -1.95558,-4.48632c-2.76081,-10.12299 4.60136,-19.44073 9.43278,-29.90882l-6.32687,0c0,0 -6.67197,10.81319 -8.62754,18.9806c-4.02619,-10.00795 -6.67197,-18.9806 -6.67197,-18.9806l-5.86673,0c0,0 8.05238,27.03297 17.48516,39.68671l6.21183,0c-0.57517,-0.6902 -1.15034,-1.49544 -1.72551,-2.30068l0,0z" class="st1"/>
   <path id="svg_6" fill="#F2F2F2" d="m50.84099,29.39455l0,0c0.6902,0.92027 1.26537,1.95558 1.95558,2.99088c0.80524,1.38041 1.49544,2.87585 1.95558,4.48632c2.76081,10.12299 -4.60136,19.44073 -9.43278,29.90882l6.32687,0c0,0 6.67197,-10.81319 8.62754,-18.9806c4.02619,10.00795 6.67197,18.9806 6.67197,18.9806l5.86673,0c0,0 -8.05238,-27.03297 -17.48516,-39.68671l-6.21183,0c0.57517,0.6902 1.15034,1.49544 1.72551,2.30068l0,0z" class="st0"/>
  </g>
 </g>
</svg>