<svg width="300" height="100" xmlns="http://www.w3.org/2000/svg" role="img">
 <title>OpenGL</title>

 <g>
  <title>Layer 1</title>
  <path fill="#2e7fc1" id="svg_1" d="m75.7757,48.53152l0.0545,0a4.21469,4.21469 0 0 1 2.19212,-2.03468c0.99917,-0.42389 2.09523,-0.63584 3.28818,-0.63584c1.32617,0 2.48885,0.23617 3.47591,0.71456c0.98706,0.47839 1.80456,1.12028 2.45857,1.93173a8.47782,8.47782 0 0 1 1.47756,2.80979c0.33306,1.05973 0.49656,2.18607 0.49656,3.37902c0,1.19295 -0.1635,2.31929 -0.48445,3.37902a8.02365,8.02365 0 0 1 -1.4594,2.77951a6.81859,6.81859 0 0 1 -2.45857,1.86512a8.14476,8.14476 0 0 1 -3.43957,0.68428a8.82299,8.82299 0 0 1 -2.95513,-0.55106a5.9587,5.9587 0 0 1 -1.44728,-0.79934a4.37213,4.37213 0 0 1 -1.14451,-1.25351l-0.0545,0l0,8.6716l-2.85218,0l0,-23.22317l2.85218,0c0,0.00101 0,0.00202 0,0.00303l0,2.27993zm10.11888,3.69391a6.11614,6.11614 0 0 0 -0.96284,-1.99834a4.72336,4.72336 0 0 0 -1.65923,-1.39884a5.14119,5.14119 0 0 0 -2.37379,-0.52078c-0.95073,0 -1.75612,0.18167 -2.42223,0.55106a4.74152,4.74152 0 0 0 -1.6229,1.44728a6.00714,6.00714 0 0 0 -0.91439,2.02862a9.54966,9.54966 0 0 0 0.01817,4.69308a5.8497,5.8497 0 0 0 0.94467,2.02862a4.75363,4.75363 0 0 0 1.67134,1.41095c0.68428,0.35728 1.5139,0.53289 2.48885,0.53289c0.97495,0 1.7864,-0.18167 2.43435,-0.55106a4.50536,4.50536 0 0 0 1.57445,-1.4594c0.39967,-0.60556 0.68428,-1.2959 0.85989,-2.07707c0.17561,-0.78117 0.26645,-1.58051 0.26645,-2.40407a8.13265,8.13265 0 0 0 -0.30278,-2.28296zm17.87003,9.75555c-1.28984,0.95073 -2.90668,1.42912 -4.86263,1.42912a9.08338,9.08338 0 0 1 -3.57885,-0.64795a7.08503,7.08503 0 0 1 -2.5494,-1.82273a7.7027,7.7027 0 0 1 -1.55023,-2.79162a13.0619,13.0619 0 0 1 -0.58134,-3.54252c0,-1.27773 0.19983,-2.44646 0.5995,-3.50618c0.39967,-1.05973 0.96284,-1.98018 1.68345,-2.76135a7.56948,7.56948 0 0 1 2.56757,-1.81668c0.98706,-0.436 2.07101,-0.64795 3.25185,-0.64795c1.53206,0 2.80374,0.30883 3.81502,0.9265c1.01128,0.61767 1.82273,1.4049 2.43435,2.36168c0.61161,0.95678 1.03551,1.99834 1.26562,3.12468c0.23617,1.12634 0.327,2.20423 0.28461,3.22157l-12.88023,0c-0.02422,0.73273 0.06661,1.43517 0.26645,2.08918a4.7173,4.7173 0 0 0 0.96284,1.75006a4.71125,4.71125 0 0 0 1.69556,1.21717c0.68428,0.30278 1.49573,0.45417 2.42829,0.45417a5.00191,5.00191 0 0 0 2.94301,-0.81145a3.96035,3.96035 0 0 0 1.5139,-2.47068l2.79768,0c-0.38756,1.87723 -1.21717,3.29424 -2.50701,4.24497zm-0.69034,-10.77894a4.79602,4.79602 0 0 0 -4.4993,-2.88851a5.00797,5.00797 0 0 0 -1.97412,0.37545a4.46297,4.46297 0 0 0 -1.50784,1.02339a4.90502,4.90502 0 0 0 -0.99312,1.50784a5.60747,5.60747 0 0 0 -0.42995,1.82879l9.85849,0a5.63169,5.63169 0 0 0 -0.45417,-1.84695zm8.03576,-4.94741l0,2.66446l0.0545,0c1.18084,-2.04073 3.05201,-3.05807 5.61958,-3.05807c1.13845,0 2.08312,0.15139 2.84007,0.45417c0.75695,0.30278 1.36856,0.72667 1.8409,1.27167c0.46628,0.545 0.79934,1.18689 0.98706,1.93779s0.28461,1.58051 0.28461,2.48885l0,11.06355l-2.85218,0l0,-11.37844a3.30635,3.30635 0 0 0 -0.93256,-2.47068a3.52435,3.52435 0 0 0 -2.56757,-0.90834a5.92236,5.92236 0 0 0 -2.25268,0.39361a4.21469,4.21469 0 0 0 -1.58656,1.10817a4.75363,4.75363 0 0 0 -0.95073,1.67134a6.63692,6.63692 0 0 0 -0.31489,2.09523l0,9.49516l-2.85218,0l0,-16.81636l2.68262,0l0,-0.01211zm31.3316,16.63469a10.11283,10.11283 0 0 1 -3.8998,0.79328c-2.07101,0 -3.93007,-0.35122 -5.58325,-1.05367a11.96584,11.96584 0 0 1 -4.18441,-2.90668a12.7894,12.7894 0 0 1 -2.60996,-4.35397c-0.60556,-1.66529 -0.90834,-3.46379 -0.90834,-5.38947c0,-1.97412 0.30278,-3.80896 0.90834,-5.50453c0.60556,-1.68951 1.47151,-3.16707 2.6039,-4.42663c1.13239,-1.25956 2.52518,-2.24662 4.17835,-2.96724a13.92785,13.92785 0 0 1 5.58325,-1.07184c1.38673,0 2.73107,0.20589 4.02696,0.61161c1.30195,0.41178 2.47068,1.01128 3.51829,1.79851a9.68894,9.68894 0 0 1 3.83924,6.92759l-5.67408,0c-0.35122,-1.47756 -1.03551,-2.58573 -2.04679,-3.33057a6.05558,6.05558 0 0 0 -3.66968,-1.10817c-1.33828,0 -2.47068,0.25433 -3.40929,0.75695s-1.68951,1.18689 -2.27084,2.04073a8.74426,8.74426 0 0 0 -1.26562,2.90668a14.09135,14.09135 0 0 0 0,6.6127c0.26645,1.04762 0.69034,1.99229 1.27167,2.83401c0.58134,0.84173 1.33828,1.5139 2.27084,2.01651c0.93256,0.50867 2.07101,0.75695 3.40929,0.75695c1.96807,0 3.49407,-0.48445 4.56591,-1.4594c1.07184,-0.96889 1.70162,-2.37984 1.87723,-4.2268l-5.97686,0l0,-4.34185l11.33606,0l0,14.27907l-3.77263,0l-0.60556,-2.99751a8.72004,8.72004 0 0 1 -3.51224,2.80374zm17.53092,-26.21463l0,21.49733l13.1709,0l0,4.89897l-19.09931,0l0,-26.39629l5.92842,0zm-109.14586,25.31235c0.32095,0.18167 0.64795,0.35728 0.99312,0.51472c1.61684,0.75089 3.50013,1.12634 5.64986,1.12634c2.14973,0 4.03302,-0.37545 5.64986,-1.12634s2.97329,-1.76823 4.05724,-3.04596c1.08395,-1.27773 1.90145,-2.74924 2.44646,-4.40847c0.545,-1.65923 0.8175,-3.39113 0.8175,-5.18358c0,-1.79851 -0.2725,-3.52435 -0.8175,-5.18358a12.92867,12.92867 0 0 0 -2.44646,-4.40847a11.90528,11.90528 0 0 0 -4.05724,-3.06413a13.14062,13.14062 0 0 0 -5.64986,-1.14451c-2.14973,0 -4.03302,0.3815 -5.64986,1.14451l-0.18167,0.09083c8.62921,-7.26065 24.42823,-12.11723 42.49204,-12.11723c15.21163,0 28.85486,3.12468 37.92613,8.55049c-9.90088,-9.08943 -27.6498,-15.47202 -47.94812,-15.47808c-31.09543,-0.00606 -56.29877,14.20035 -56.29877,31.73732c0,17.53092 25.19729,31.74943 56.28061,31.75549c20.21354,0.00606 37.92007,-6.36442 47.84518,-15.38724c-9.07127,5.38947 -22.65394,8.45965 -37.81107,8.45965c-18.63909,-0.00606 -34.87411,-5.18358 -43.29743,-12.83178zm2.39196,-22.03022c1.18689,-0.62978 2.6039,-0.94467 4.25102,-0.94467c1.64712,0 3.06413,0.31489 4.25102,0.94467c1.18689,0.62978 2.16184,1.4594 2.92485,2.4949c0.75695,1.03551 1.31406,2.19818 1.67134,3.49407a14.71507,14.71507 0 0 1 0,7.87226c-0.35728,1.2959 -0.90834,2.45857 -1.67134,3.48802a8.43543,8.43543 0 0 1 -2.92485,2.4949c-1.19295,0.62978 -2.6039,0.93862 -4.25102,0.93862a9.02282,9.02282 0 0 1 -4.25102,-0.93862a8.48993,8.48993 0 0 1 -2.92485,-2.4949a10.68811,10.68811 0 0 1 -1.67134,-3.48802a14.71507,14.71507 0 0 1 0,-7.87226a10.53672,10.53672 0 0 1 1.67134,-3.49407c0.75695,-1.03551 1.7319,-1.86512 2.92485,-2.4949z"/>
 </g>
</svg>